<?xml version="1.0" encoding="UTF-8"?>
<svg version="1.1" xmlns="http://www.w3.org/2000/svg" width="512" height="512">
<path d="M0 0 C0.94545504 -0.00453111 1.89091008 -0.00906223 2.86501527 -0.01373065 C6.02922101 -0.02637847 9.19325471 -0.02475401 12.35748291 -0.02310181 C14.62783021 -0.02908685 16.89817548 -0.03589234 19.16851807 -0.04345703 C25.33393772 -0.06112758 31.49930185 -0.06581289 37.66474438 -0.0670886 C41.51791905 -0.06851026 45.37107962 -0.07278017 49.22425079 -0.07808304 C61.97646423 -0.0956325 74.72863143 -0.10492286 87.480854 -0.10342209 C88.51129898 -0.10330222 88.51129898 -0.10330222 89.56256104 -0.10317993 C90.59427081 -0.10305729 90.59427081 -0.10305729 91.6468232 -0.10293217 C102.78803585 -0.10211966 113.92911319 -0.12124981 125.07028672 -0.14945666 C136.5220877 -0.1782201 147.97379535 -0.19162919 159.42563844 -0.19026911 C165.85008187 -0.18975955 172.27437217 -0.19543995 178.69878387 -0.21662521 C184.74318392 -0.23601299 190.78728486 -0.23612806 196.83169556 -0.22159195 C199.04638354 -0.21950339 201.26109027 -0.22420751 203.47574615 -0.23631287 C206.50696642 -0.25180444 209.53716038 -0.24243086 212.56835938 -0.22705078 C213.43783825 -0.23733791 214.30731712 -0.24762503 215.20314384 -0.25822389 C223.8435349 -0.16182065 231.64003483 2.61789156 238.00689697 8.56430054 C244.28087109 15.54249624 246.84837737 22.87219117 246.79541588 32.22703266 C246.79892195 33.01466475 246.80242803 33.80229684 246.80604035 34.61379656 C246.81535572 37.25714302 246.81043068 39.90026924 246.80557251 42.54362488 C246.8093087 44.45629817 246.81391009 46.36896994 246.81930315 48.28163928 C246.83155241 53.54105538 246.83127042 58.80040796 246.8289144 64.05983508 C246.82850673 69.73072139 246.83954067 75.4015872 246.84902954 81.07246399 C246.8656509 92.18396603 246.87113959 103.29544685 246.8722543 114.40696029 C246.8732042 123.43754109 246.8773116 132.46811488 246.88365555 141.49869347 C246.89840385 162.92851852 246.91070495 184.35833666 246.90965843 205.788167 C246.9096117 206.81615315 246.9096117 206.81615315 246.90956402 207.86490669 C246.9093978 211.33840894 246.90919972 214.81191118 246.9089946 218.28541342 C246.90895471 218.97526261 246.90891482 219.6651118 246.90887372 220.37586551 C246.90879285 221.77090863 246.90870925 223.16595175 246.90862294 224.56099487 C246.90739741 246.26598097 246.92241104 267.97090458 246.94976807 289.6758728 C246.98049141 314.06171152 246.99767508 338.44749875 246.99584162 362.8333599 C246.9951772 375.74504826 247.00069223 388.65666616 247.02219772 401.56833839 C247.04038917 412.56084871 247.04477355 423.55325661 247.03117888 434.54577545 C247.02463908 440.1549669 247.02456868 445.76396174 247.04188538 451.37313461 C247.05757611 456.50841038 247.05479325 461.643333 247.03731711 466.77859994 C247.03423842 468.63590512 247.03791222 470.4932364 247.04903726 472.35051081 C247.14822957 490.08539958 247.14822957 490.08539958 242.53814697 497.26742554 C242.06892822 498.07695679 241.59970947 498.88648804 241.11627197 499.72055054 C236.20823546 506.36083522 230.50040786 510.0720306 222.53814697 512.26742554 C219.38088123 512.55445959 216.2382202 512.54601494 213.06956482 512.53485107 C212.12340421 512.53938219 211.17724361 512.5439133 210.20241147 512.54858172 C207.03587179 512.56122952 203.86950402 512.55960509 200.70294189 512.55795288 C198.43097208 512.56393788 196.15900429 512.57074336 193.88703918 512.57830811 C187.71755458 512.59597805 181.54812546 512.60066391 175.378618 512.60193968 C171.52344101 512.60336126 167.66827812 512.60763099 163.81310463 512.61293411 C151.05582553 512.63048272 138.29859266 512.63977396 125.54130443 512.63827316 C124.51046537 512.6381533 124.51046537 512.6381533 123.45880127 512.63803101 C122.42669803 512.63790836 122.42669803 512.63790836 121.37374423 512.63778324 C110.22538954 512.63697053 99.07717002 512.65610606 87.92885443 512.68430774 C76.47140822 512.71306185 65.01405527 512.72648069 53.55656701 512.72512019 C47.12824313 512.72461042 40.70007223 512.73030223 34.27178001 512.75147629 C28.22492075 512.77085016 22.17836056 512.77098866 16.13149071 512.75644302 C13.91477013 512.7543528 11.69803088 512.75906845 9.48134232 512.77116394 C6.44977125 512.78663179 3.41922943 512.77729754 0.38768005 512.76190186 C-0.48471166 512.77218898 -1.35710337 512.78247611 -2.2559312 512.79307497 C-11.58800937 512.68870229 -19.72897706 508.67688824 -26.46185303 502.26742554 C-31.7583698 495.54595755 -33.7674635 488.84605361 -33.71912193 480.31061172 C-33.72438104 479.12961299 -33.72438104 479.12961299 -33.7297464 477.92475569 C-33.73906175 475.28241852 -33.73413673 472.64030167 -33.72927856 469.99795532 C-33.73301476 468.08599472 -33.73761615 466.17403565 -33.74300921 464.262079 C-33.75525849 459.00459351 -33.75497647 453.74717156 -33.75262046 448.48967505 C-33.75221278 442.82081461 -33.76324678 437.15197469 -33.7727356 431.48312378 C-33.78935723 420.37529674 -33.79484567 409.26749093 -33.79596035 398.1596525 C-33.79691029 389.13146397 -33.80101787 380.10328245 -33.8073616 371.07509613 C-33.82211027 349.64956229 -33.83441099 328.22403537 -33.83336449 306.79849625 C-33.83333333 306.11329737 -33.83330217 305.42809849 -33.83327007 304.722136 C-33.83310386 301.24928172 -33.83290577 297.77642744 -33.83270065 294.30357316 C-33.83266076 293.61385517 -33.83262087 292.92413718 -33.83257977 292.21351864 C-33.8324989 290.81874045 -33.8324153 289.42396227 -33.83232899 288.02918408 C-33.83110361 266.33090183 -33.84611433 244.63268209 -33.87347412 222.93441772 C-33.90420224 198.55479535 -33.92138083 174.17522449 -33.91954768 149.79557967 C-33.9188834 136.88777181 -33.92439244 123.98003445 -33.94590378 111.07224274 C-33.96410135 100.08232285 -33.96847459 89.09250542 -33.95488493 78.102577 C-33.9483481 72.49528689 -33.94826407 66.88819343 -33.96559143 61.28092194 C-33.98129532 56.14621072 -33.97848575 51.0118525 -33.96102317 45.87715003 C-33.95794738 44.02117294 -33.96160742 42.16516968 -33.97274332 40.30922344 C-34.03927187 28.43330981 -33.69466742 17.93147428 -25.16497803 8.79867554 C-17.62657468 2.02102849 -9.93560163 -0.03503247 0 0 Z M-13.39935303 22.01742554 C-17.72529428 28.83406023 -17.74799391 35.23788238 -17.70236206 43.09370422 C-17.70407091 44.17365947 -17.70577976 45.25361471 -17.70754039 46.36629587 C-17.71083038 49.97915889 -17.69983949 53.59183553 -17.68890381 57.2046814 C-17.68833959 59.79681392 -17.68865646 62.38894676 -17.68978882 64.9810791 C-17.69083597 70.55876018 -17.68457711 76.13639436 -17.67331314 81.71406364 C-17.6570381 89.77836495 -17.65184809 97.84264365 -17.64933716 105.9069596 C-17.6449632 118.99172737 -17.63166221 132.07647016 -17.61273193 145.16122437 C-17.59436539 157.86955643 -17.58021268 170.5778817 -17.57171631 183.28622437 C-17.57119086 184.06996514 -17.57066541 184.85370591 -17.57012405 185.6611964 C-17.56751391 189.59311266 -17.56498651 193.52502896 -17.56250024 197.4569453 C-17.54177705 230.0604569 -17.50655967 262.66393787 -17.46185303 295.26742554 C-3.16436857 292.13405661 -3.16436857 292.13405661 11.04815674 288.63973999 C11.96006838 288.40570906 12.87198002 288.17167812 13.81152534 287.93055534 C16.7849266 287.16672725 19.75723984 286.39875615 22.72955322 285.63070679 C24.88360687 285.07644226 27.03772763 284.52243855 29.19190979 283.96867371 C34.96491824 282.48385301 40.7369868 280.99540956 46.50887299 279.50623322 C52.55926924 277.94585427 58.61052528 276.38881658 64.66168213 274.83139038 C75.90787887 271.93634328 87.15329791 269.0382877 98.39840698 266.13901901 C110.30172845 263.0701947 122.20594165 260.00483777 134.11023521 256.93978691 C166.92584778 248.49129659 166.92584778 248.49129659 199.73642445 240.02327824 C204.58216748 238.77129072 209.42934598 237.52506323 214.27740479 236.28207397 C216.40861926 235.73303513 218.53980718 235.1838932 220.67095947 234.63461304 C221.59528778 234.39920807 222.51961609 234.1638031 223.47195435 233.92126465 C227.31436071 233.20411093 227.31436071 233.20411093 230.53814697 231.26742554 C230.64256239 228.72054169 230.68147351 226.20053776 230.67858887 223.65292358 C230.68155999 222.84579233 230.68453111 222.03866108 230.68759227 221.2070713 C230.69631839 218.48108536 230.69779083 215.75514313 230.69927979 213.02914429 C230.7039054 211.08303228 230.70892971 209.13692118 230.71432495 207.19081116 C230.72748053 201.88671657 230.73390069 196.58263467 230.73833561 191.27852631 C230.74126283 187.96527434 230.74536708 184.65202585 230.74983978 181.33877563 C230.76352648 170.97452942 230.77318592 160.61029116 230.77704167 150.24603653 C230.78151765 138.27943943 230.79903927 126.31295683 230.82804227 114.34639454 C230.84967128 105.10129722 230.8597467 95.85623208 230.86108279 86.61110973 C230.86213046 81.08816827 230.86802952 75.56533427 230.8859024 70.04241943 C230.90240283 64.84188544 230.90452894 59.64153941 230.8957634 54.44098854 C230.89499393 52.53549508 230.89932377 50.62999145 230.90922165 48.72452354 C230.92197574 46.11539259 230.91604558 43.50692378 230.90563965 40.89779663 C230.91369605 40.15039561 230.92175246 39.40299459 230.930053 38.63294506 C230.87589758 32.79406061 230.00621999 26.36256654 226.2632153 21.66856956 C220.31420598 16.26976489 213.1463136 15.97148779 205.55673218 16.00672913 C204.67505399 16.00290358 203.79337579 15.99907803 202.88498008 15.99513656 C199.94264753 15.9848514 197.00051175 15.98879018 194.0581665 15.99276733 C191.94368307 15.98841837 189.8292012 15.98323461 187.71472168 15.97727966 C181.97915985 15.96389807 176.24366394 15.96331009 170.50808954 15.96584296 C165.71686838 15.96691327 160.92566052 15.96202776 156.13444221 15.95723754 C144.82938444 15.9461452 133.5243599 15.94570339 122.21929932 15.95175171 C110.56372927 15.95779176 98.90827994 15.94547901 87.25273049 15.92418164 C77.23893564 15.90655814 67.22517918 15.90056548 57.2113694 15.90381938 C51.23357287 15.90563122 45.25586245 15.90300587 39.27807999 15.88910484 C33.65558112 15.87651907 28.03327025 15.87847785 22.41077423 15.89151573 C20.35047466 15.89387943 18.29016183 15.89115425 16.22987747 15.88289261 C13.41087776 15.87240604 10.59250659 15.88054123 7.77352905 15.89320374 C6.55934742 15.88214231 6.55934742 15.88214231 5.32063687 15.87085742 C-1.3521542 15.93363386 -8.69676136 16.84462194 -13.39935303 22.01742554 Z M139.72564697 311.89242554 C138.05173706 314.17847726 137.39599421 315.72942201 136.53814697 318.51742554 C135.53814697 321.26742554 135.53814697 321.26742554 133.28814697 322.39242554 C131.92689697 322.82555054 131.92689697 322.82555054 130.53814697 323.26742554 C127.60091931 325.11039192 124.99060888 326.81496363 122.53814697 329.26742554 C121.87024334 332.13902204 121.87024334 332.13902204 122.53814697 335.26742554 C125.84844105 338.57771962 129.386313 341.07617983 133.53814697 343.26742554 C134.19814697 343.26742554 134.85814697 343.26742554 135.53814697 343.26742554 C135.87845947 344.56680054 135.87845947 344.56680054 136.22564697 345.89242554 C137.86093817 350.09746003 139.22641446 352.17647519 142.53814697 355.26742554 C146.0813625 356.18422774 146.0813625 356.18422774 149.53814697 355.26742554 C151.90767744 353.13915058 151.90767744 353.13915058 153.53814697 350.26742554 C154.11564697 349.38055054 154.69314697 348.49367554 155.28814697 347.57992554 C156.69665265 345.41230963 156.69665265 345.41230963 156.53814697 343.26742554 C157.23939697 343.01992554 157.94064697 342.77242554 158.66314697 342.51742554 C163.24860044 340.52375012 166.74473388 338.45754518 169.53814697 334.26742554 C169.45600953 330.40696565 169.08604022 328.80009953 166.28814697 326.07992554 C161.76782513 322.66872357 161.76782513 322.66872357 156.53814697 321.26742554 C156.29064697 320.56617554 156.04314697 319.86492554 155.78814697 319.14242554 C154.23770996 315.57642042 152.31312714 312.0424057 149.53814697 309.26742554 C144.89516085 308.64240817 143.22013453 308.63090382 139.72564697 311.89242554 Z M69.06549072 343.06430054 C59.22102563 351.23706401 52.84197983 362.48986352 51.53814697 375.26742554 C50.5434807 388.7318105 54.56123473 401.54115857 63.16314697 411.95492554 C72.20624691 421.55791721 84.52883284 427.53141358 97.71392822 428.30258179 C111.13052169 428.13557025 123.27307528 423.24002252 132.96392822 413.93930054 C138.04053451 408.52203818 143.14654274 402.96667632 143.78814697 395.26742554 C143.70564697 394.60742554 143.62314697 393.94742554 143.53814697 393.26742554 C141.83033379 391.97961517 141.83033379 391.97961517 139.53814697 391.26742554 C137.06575857 392.2762877 137.06575857 392.2762877 134.66314697 394.01742554 C125.86472379 399.91981601 116.81552234 400.24562753 106.53814697 399.26742554 C97.82114131 397.38175203 89.66919149 391.85191669 84.66314697 384.45492554 C79.64786371 375.43088645 78.02064389 365.99113152 80.29986572 355.89242554 C81.65796152 351.16861408 82.94310827 346.71672109 85.85064697 342.70492554 C87.81642945 340.43156737 87.81642945 340.43156737 87.28814697 337.89242554 C86.69051921 336.10350581 86.69051921 336.10350581 84.86236572 335.61508179 C79.26809456 334.77829165 73.39531008 339.91782834 69.06549072 343.06430054 Z M80.53814697 467.26742554 C79.11772877 470.10826195 79.22362425 472.12219831 79.53814697 475.26742554 C81.77021128 478.11523173 83.08807696 479.1174022 86.53814697 480.26742554 C89.49002193 480.38884888 92.41749716 480.45562327 95.37017822 480.47055054 C96.23954514 480.47625061 97.10891205 480.48195068 98.00462341 480.48782349 C99.844643 480.49726831 101.68467945 480.50380542 103.52471924 480.50765991 C106.32962841 480.5173529 109.13380076 480.54837564 111.9385376 480.57992554 C113.7282468 480.58645721 115.51796123 480.59170704 117.30767822 480.59555054 C118.14225052 480.60789734 118.97682281 480.62024414 119.83668518 480.63296509 C124.80616406 480.6141033 128.23819958 480.04311105 132.53814697 477.26742554 C133.95856518 474.42658912 133.8526697 472.41265276 133.53814697 469.26742554 C131.30608266 466.41961935 129.98821699 465.41744888 126.53814697 464.26742554 C123.58627202 464.1460022 120.65879679 464.07922781 117.70611572 464.06430054 C116.83674881 464.05860046 115.9673819 464.05290039 115.07167053 464.04702759 C113.23165095 464.03758276 111.39161449 464.03104566 109.55157471 464.02719116 C106.74666553 464.01749817 103.94249318 463.98647544 101.13775635 463.95492554 C99.34804715 463.94839386 97.55833272 463.94314404 95.76861572 463.93930054 C94.93404343 463.92695374 94.09947113 463.91460693 93.23960876 463.90188599 C88.27012988 463.92074777 84.83809436 464.49174002 80.53814697 467.26742554 Z " fill="#000000" transform="translate(149.46185302734375,-0.267425537109375)"/>
<path d="M0 0 C8.80288754 6.34043826 15.4186507 14.72648904 17.58203125 25.4921875 C18.92007691 37.90936834 17.85729499 48.88109459 10.39453125 59.2421875 C3.58210875 67.3274193 -4.72289951 73.55522767 -15.48876953 74.71533203 C-28.40007937 75.61089799 -39.16843729 74.04490094 -49.3515625 65.46484375 C-57.86959925 57.33325857 -62.42046403 48.68416257 -62.88867188 36.85693359 C-63.04371176 24.34263074 -60.22647828 14.71931927 -51.41796875 5.4921875 C-37.63784493 -7.66275112 -16.31305228 -10.17259803 0 0 Z " fill="#000000" transform="translate(278.41796875,117.5078125)"/>
<path d="M0 0 C5.30698318 1.07938641 7.9542882 3.98025971 11.6875 7.75 C12.35652344 8.39453125 13.02554687 9.0390625 13.71484375 9.703125 C19.53062801 15.36429741 19.53062801 15.36429741 20.0625 20.0625 C19.6875 23.75 19.6875 23.75 17.625 26.6875 C14.6875 28.75 14.6875 28.75 11.375 29.5 C6.06801682 28.42061359 3.4207118 25.51974029 -0.3125 21.75 C-0.98152344 21.10546875 -1.65054687 20.4609375 -2.33984375 19.796875 C-8.15562801 14.13570259 -8.15562801 14.13570259 -8.6875 9.4375 C-8.3125 5.75 -8.3125 5.75 -6.25 2.8125 C-3.3125 0.75 -3.3125 0.75 0 0 Z " fill="#000000" transform="translate(301.3125,188.25)"/>
<path d="M0 0 C3.57632467 2.51103647 4.78325846 4.04272488 5.75 8.3125 C4.67061359 13.61948318 1.76974029 16.2667882 -2 20 C-2.64453125 20.66902344 -3.2890625 21.33804688 -3.953125 22.02734375 C-9.61429741 27.84312801 -9.61429741 27.84312801 -14.3125 28.375 C-18 28 -18 28 -20.9375 25.9375 C-23 23 -23 23 -23.75 19.6875 C-22.67061359 14.38051682 -19.76974029 11.7332118 -16 8 C-15.35546875 7.33097656 -14.7109375 6.66195312 -14.046875 5.97265625 C-9.36340275 1.16127404 -7.08542287 -0.72055148 0 0 Z " fill="#000000" transform="translate(214,189)"/>
<path d="M0 0 C3.57632467 2.51103647 4.78325846 4.04272488 5.75 8.3125 C4.67061359 13.61948318 1.76974029 16.2667882 -2 20 C-2.64453125 20.66902344 -3.2890625 21.33804688 -3.953125 22.02734375 C-9.61429741 27.84312801 -9.61429741 27.84312801 -14.3125 28.375 C-18 28 -18 28 -20.9375 25.9375 C-23 23 -23 23 -23.75 19.6875 C-22.67061359 14.38051682 -19.76974029 11.7332118 -16 8 C-15.35546875 7.33097656 -14.7109375 6.66195312 -14.046875 5.97265625 C-9.36340275 1.16127404 -7.08542287 -0.72055148 0 0 Z " fill="#000000" transform="translate(316,87)"/>
<path d="M0 0 C5.30698318 1.07938641 7.9542882 3.98025971 11.6875 7.75 C12.35652344 8.39453125 13.02554688 9.0390625 13.71484375 9.703125 C19.53062801 15.36429741 19.53062801 15.36429741 20.0625 20.0625 C19.6875 23.75 19.6875 23.75 17.625 26.6875 C14.6875 28.75 14.6875 28.75 11.375 29.5 C6.06801682 28.42061359 3.4207118 25.51974029 -0.3125 21.75 C-0.98152344 21.10546875 -1.65054688 20.4609375 -2.33984375 19.796875 C-8.15562801 14.13570259 -8.15562801 14.13570259 -8.6875 9.4375 C-8.3125 5.75 -8.3125 5.75 -6.25 2.8125 C-3.3125 0.75 -3.3125 0.75 0 0 Z " fill="#000000" transform="translate(199.3125,86.25)"/>
<path d="M0 0 C0.66 -0.0103125 1.32 -0.020625 2 -0.03125 C4.91796104 0.7438334 6.0931088 2.19104167 8 4.5 C8.51757812 7.09375 8.51757812 7.09375 8.53125 10 C8.53640625 11.051875 8.5415625 12.10375 8.546875 13.1875 C8.53140625 14.280625 8.5159375 15.37375 8.5 16.5 C8.51546875 17.593125 8.5309375 18.68625 8.546875 19.8125 C8.54171875 20.864375 8.5365625 21.91625 8.53125 23 C8.52673828 23.9590625 8.52222656 24.918125 8.51757812 25.90625 C7.857725 29.21298564 6.58886445 30.40908706 4 32.5 C2 33.03125 2 33.03125 0 33 C-0.99 33.01546875 -0.99 33.01546875 -2 33.03125 C-4.91796104 32.2561666 -6.0931088 30.80895833 -8 28.5 C-8.51757812 25.90625 -8.51757812 25.90625 -8.53125 23 C-8.53640625 21.948125 -8.5415625 20.89625 -8.546875 19.8125 C-8.53140625 18.719375 -8.5159375 17.62625 -8.5 16.5 C-8.51546875 15.406875 -8.5309375 14.31375 -8.546875 13.1875 C-8.53914062 11.6096875 -8.53914062 11.6096875 -8.53125 10 C-8.52673828 9.0409375 -8.52222656 8.081875 -8.51757812 7.09375 C-7.60329874 2.51200272 -4.67433964 -0.07303656 0 0 Z " fill="#000000" transform="translate(256,207.5)"/>
<path d="M0 0 C1.051875 -0.00515625 2.10375 -0.0103125 3.1875 -0.015625 C4.280625 -0.00015625 5.37375 0.0153125 6.5 0.03125 C8.1396875 0.00804687 8.1396875 0.00804687 9.8125 -0.015625 C10.864375 -0.01046875 11.91625 -0.0053125 13 0 C14.43859375 0.00676758 14.43859375 0.00676758 15.90625 0.01367188 C19.21298564 0.673525 20.40908706 1.94238555 22.5 4.53125 C23.03125 6.53125 23.03125 6.53125 23 8.53125 C23.0103125 9.19125 23.020625 9.85125 23.03125 10.53125 C22.2561666 13.44921104 20.80895833 14.6243588 18.5 16.53125 C15.90625 17.04882812 15.90625 17.04882812 13 17.0625 C11.948125 17.06765625 10.89625 17.0728125 9.8125 17.078125 C8.719375 17.06265625 7.62625 17.0471875 6.5 17.03125 C4.8603125 17.05445313 4.8603125 17.05445313 3.1875 17.078125 C2.135625 17.07296875 1.08375 17.0678125 0 17.0625 C-0.9590625 17.05798828 -1.918125 17.05347656 -2.90625 17.04882812 C-6.21298564 16.388975 -7.40908706 15.12011445 -9.5 12.53125 C-10.03125 10.53125 -10.03125 10.53125 -10 8.53125 C-10.01546875 7.54125 -10.01546875 7.54125 -10.03125 6.53125 C-8.65240655 1.34030994 -4.94094259 0.02324368 0 0 Z " fill="#000000" transform="translate(321.5,143.46875)"/>
<path d="M0 0 C1.051875 -0.00515625 2.10375 -0.0103125 3.1875 -0.015625 C4.280625 -0.00015625 5.37375 0.0153125 6.5 0.03125 C8.1396875 0.00804687 8.1396875 0.00804687 9.8125 -0.015625 C10.864375 -0.01046875 11.91625 -0.0053125 13 0 C14.43859375 0.00676758 14.43859375 0.00676758 15.90625 0.01367188 C19.21298564 0.673525 20.40908706 1.94238555 22.5 4.53125 C23.03125 6.53125 23.03125 6.53125 23 8.53125 C23.0103125 9.19125 23.020625 9.85125 23.03125 10.53125 C22.2561666 13.44921104 20.80895833 14.6243588 18.5 16.53125 C15.90625 17.04882812 15.90625 17.04882812 13 17.0625 C11.948125 17.06765625 10.89625 17.0728125 9.8125 17.078125 C8.719375 17.06265625 7.62625 17.0471875 6.5 17.03125 C4.8603125 17.05445313 4.8603125 17.05445313 3.1875 17.078125 C2.135625 17.07296875 1.08375 17.0678125 0 17.0625 C-0.9590625 17.05798828 -1.918125 17.05347656 -2.90625 17.04882812 C-6.21298564 16.388975 -7.40908706 15.12011445 -9.5 12.53125 C-10.03125 10.53125 -10.03125 10.53125 -10 8.53125 C-10.01546875 7.54125 -10.01546875 7.54125 -10.03125 6.53125 C-8.65240655 1.34030994 -4.94094259 0.02324368 0 0 Z " fill="#000000" transform="translate(177.5,143.46875)"/>
<path d="M0 0 C0.66 -0.0103125 1.32 -0.020625 2 -0.03125 C4.91796104 0.7438334 6.0931088 2.19104167 8 4.5 C8.51757812 7.09375 8.51757812 7.09375 8.53125 10 C8.53640625 11.051875 8.5415625 12.10375 8.546875 13.1875 C8.53140625 14.280625 8.5159375 15.37375 8.5 16.5 C8.51546875 17.593125 8.5309375 18.68625 8.546875 19.8125 C8.54171875 20.864375 8.5365625 21.91625 8.53125 23 C8.52673828 23.9590625 8.52222656 24.918125 8.51757812 25.90625 C7.857725 29.21298564 6.58886445 30.40908706 4 32.5 C2 33.03125 2 33.03125 0 33 C-0.99 33.01546875 -0.99 33.01546875 -2 33.03125 C-4.91796104 32.2561666 -6.0931088 30.80895833 -8 28.5 C-8.51757812 25.90625 -8.51757812 25.90625 -8.53125 23 C-8.53640625 21.948125 -8.5415625 20.89625 -8.546875 19.8125 C-8.53140625 18.719375 -8.5159375 17.62625 -8.5 16.5 C-8.51546875 15.406875 -8.5309375 14.31375 -8.546875 13.1875 C-8.53914062 11.6096875 -8.53914062 11.6096875 -8.53125 10 C-8.52673828 9.0409375 -8.52222656 8.081875 -8.51757812 7.09375 C-7.60329874 2.51200272 -4.67433964 -0.07303656 0 0 Z " fill="#000000" transform="translate(256,63.5)"/>
<path d="M0 0 C2.5 1.5 2.5 1.5 4 4 C4.791013 8.02098277 4.62153384 10.96411027 2.5 14.5 C-1.03588973 16.62153384 -3.97901723 16.791013 -8 16 C-10.5 14.5 -10.5 14.5 -12 12 C-12.791013 7.97901723 -12.62153384 5.03588973 -10.5 1.5 C-6.96411027 -0.62153384 -4.02098277 -0.791013 0 0 Z " fill="#000000" transform="translate(260,32)"/>
</svg>
