<?xml version="1.0" encoding="utf-8"?>

<!-- Uploaded to: SVG Repo, www.svgrepo.com, Generator: SVG Repo Mixer Tools -->
<svg version="1.1" id="Icons" xmlns="http://www.w3.org/2000/svg" xmlns:xlink="http://www.w3.org/1999/xlink" 
	 viewBox="0 0 32 32" xml:space="preserve">
<line class="st0" x1="8" y1="13" x2="23" y2="13"/>
<line class="st0" x1="13" y1="19" x2="24" y2="19"/>
<line class="st0" x1="3" y1="16" x2="29" y2="16"/>
<line class="st0" x1="10" y1="19" x2="9" y2="19"/>
<path class="st0" d="M17.14,19c-1.22,1.46-2.92,2.54-4.92,2.99c-2.68,0.6-5.34-0.06-7.37-1.59c2.13,5.42,7.93,8.64,13.79,7.32
	c6.47-1.45,10.53-7.87,9.08-14.34S19.84,2.86,13.37,4.31c-0.27,0.06-0.52,0.14-0.78,0.22c3.12,0.85,5.68,3.34,6.43,6.71
	c0.13,0.59,0.2,1.18,0.22,1.76"/>
</svg>